<svg width="78" height="36" viewBox="0 0 78 36" fill="none" xmlns="http://www.w3.org/2000/svg">
<path d="M36.7071 28.068H36.0659V26.3566H36.6823C37.0402 26.3566 37.2241 26.555 37.2241 26.7931C37.2258 26.8824 37.1973 26.9697 37.1432 27.0408C37.0891 27.1119 37.0125 27.1627 36.9259 27.185C37.0219 27.2064 37.1077 27.2599 37.1691 27.3365C37.2305 27.4132 37.264 27.5085 37.2639 27.6066C37.2639 27.8448 37.06 28.068 36.7071 28.068ZM36.6624 26.5401H36.2896V27.0957H36.6674C36.8761 27.0957 36.9955 26.9915 36.9955 26.8179C36.9955 26.6443 36.8811 26.5401 36.6624 26.5401ZM36.6624 27.2793H36.2747V27.8844H36.6723C36.891 27.8844 37.0253 27.7753 37.0253 27.5868C37.0253 27.3983 36.8961 27.2793 36.6773 27.2793H36.6624Z" fill="#6C6C75"/>
<path d="M38.8 26.3566H39.0237V27.438C39.0237 27.7555 39.1927 27.8894 39.4462 27.8894C39.6997 27.8894 39.8687 27.7555 39.8687 27.438V26.3566H40.0924V27.438C40.0924 27.609 40.0243 27.7731 39.9032 27.894C39.782 28.0149 39.6176 28.0829 39.4462 28.0829C39.2748 28.0829 39.1105 28.0149 38.9893 27.894C38.8681 27.7731 38.8 27.609 38.8 27.438V26.3566Z" fill="#6C6C75"/>
<path d="M42.2448 28.0878C41.8969 28.0878 41.6533 27.8943 41.6483 27.5917H41.8869C41.8912 27.634 41.904 27.675 41.9244 27.7122C41.9449 27.7495 41.9726 27.7823 42.006 27.8087C42.0393 27.835 42.0777 27.8544 42.1187 27.8658C42.1597 27.8771 42.2026 27.88 42.2448 27.8745C42.4586 27.8745 42.5878 27.7554 42.5878 27.5917C42.5878 27.1304 41.6583 27.4231 41.6583 26.7881C41.6583 26.5054 41.8869 26.3169 42.2299 26.3169C42.296 26.3072 42.3634 26.3108 42.4281 26.3277C42.4927 26.3445 42.5533 26.3742 42.6062 26.415C42.6591 26.4557 42.7032 26.5067 42.7359 26.5649C42.7686 26.623 42.7893 26.6871 42.7966 26.7534H42.553C42.5375 26.6786 42.495 26.612 42.4336 26.5664C42.3723 26.5207 42.2963 26.4989 42.22 26.5054C42.1793 26.499 42.1378 26.5014 42.0982 26.5123C42.0586 26.5233 42.0218 26.5425 41.9903 26.5689C41.9587 26.5952 41.9332 26.6279 41.9153 26.6649C41.8976 26.7018 41.8879 26.7422 41.8869 26.7832C41.8869 27.2247 42.8115 26.9469 42.8115 27.5818C42.8137 27.6541 42.7999 27.7259 42.7714 27.7923C42.7428 27.8588 42.7 27.9181 42.6461 27.9664C42.5921 28.0145 42.5282 28.0504 42.4589 28.0714C42.3896 28.0924 42.3165 28.098 42.2448 28.0878Z" fill="#6C6C75"/>
<path d="M45.1476 26.3566C45.3155 26.346 45.4824 26.3882 45.6251 26.4771C45.7678 26.5661 45.8789 26.6974 45.9429 26.8526H45.6894C45.6456 26.7513 45.5715 26.6659 45.4771 26.6082C45.3828 26.5504 45.2729 26.5232 45.1625 26.5302C44.9819 26.5302 44.8087 26.6018 44.6809 26.7293C44.5532 26.8567 44.4815 27.0296 44.4815 27.2098C44.4815 27.3901 44.5532 27.5629 44.6809 27.6903C44.8087 27.8178 44.9819 27.8894 45.1625 27.8894C45.2722 27.8961 45.3814 27.8693 45.4755 27.8126C45.5696 27.7559 45.6442 27.6719 45.6894 27.5719H45.9579C45.8938 27.7271 45.7827 27.8584 45.64 27.9474C45.4974 28.0364 45.3304 28.0785 45.1625 28.068C44.9305 28.068 44.7079 27.976 44.5439 27.8123C44.3798 27.6486 44.2877 27.4265 44.2877 27.1949C44.2877 26.9634 44.3798 26.7413 44.5439 26.5776C44.7079 26.4138 44.9305 26.3219 45.1625 26.3219L45.1476 26.3566Z" fill="#6C6C75"/>
<path d="M48.523 27.686H47.7726L47.6334 28.068H47.3998L48.0211 26.3566H48.2794L48.8958 28.0581H48.6721L48.523 27.686ZM48.1454 26.6393L47.8372 27.5074H48.4584L48.1454 26.6393Z" fill="#6C6C75"/>
<path d="M50.9436 28.0878C50.5957 28.0878 50.3521 27.8943 50.3471 27.5917H50.5857C50.5902 27.634 50.6026 27.675 50.6235 27.7122C50.6439 27.7495 50.6712 27.7823 50.705 27.8087C50.7383 27.835 50.7766 27.8544 50.8174 27.8658C50.8586 27.8771 50.9014 27.88 50.9436 27.8745C51.1574 27.8745 51.2866 27.7554 51.2866 27.5917C51.2866 27.1304 50.3571 27.4231 50.3571 26.7881C50.3571 26.5054 50.5857 26.3169 50.9287 26.3169C50.9948 26.3072 51.0624 26.3108 51.1271 26.3277C51.1917 26.3445 51.2523 26.3742 51.305 26.415C51.3582 26.4557 51.4019 26.5067 51.4347 26.5649C51.4675 26.623 51.4879 26.6871 51.4954 26.7534H51.2468C51.2334 26.6785 51.1922 26.6113 51.1315 26.5654C51.0709 26.5194 50.9948 26.498 50.9188 26.5054C50.7299 26.5054 50.5857 26.5996 50.5857 26.7832C50.5857 27.2247 51.5103 26.9469 51.5103 27.5818C51.5123 27.6541 51.4989 27.7259 51.47 27.7923C51.4417 27.8588 51.399 27.9181 51.3448 27.9664C51.2911 28.0145 51.227 28.0504 51.1579 28.0714C51.0883 28.0924 51.0152 28.098 50.9436 28.0878Z" fill="#6C6C75"/>
<path d="M56.3123 26.3566V28.068H56.0886L55.1889 26.7038V28.068H54.9603V26.3566H55.1889L56.0886 27.7158V26.3566H56.3123Z" fill="#6C6C75"/>
<path d="M58.7031 28.0878C58.5281 28.0918 58.3561 28.0436 58.209 27.9496C58.0619 27.8555 57.946 27.7198 57.8765 27.5598C57.8064 27.3997 57.7865 27.2226 57.8178 27.051C57.8496 26.8794 57.9316 26.7211 58.0539 26.5963C58.1762 26.4715 58.3328 26.3859 58.5043 26.3504C58.6753 26.3149 58.8532 26.3311 59.0153 26.3969C59.1773 26.4627 59.3155 26.5752 59.4134 26.72C59.5109 26.8648 59.563 27.0353 59.563 27.2098C59.568 27.3247 59.5491 27.4394 59.5079 27.5467C59.4666 27.654 59.4035 27.7519 59.323 27.8341C59.2424 27.9164 59.146 27.9813 59.0396 28.0249C58.9328 28.0685 58.8184 28.0899 58.7031 28.0878ZM58.7031 27.8894C58.8393 27.8993 58.9755 27.8681 59.0943 27.7997C59.2126 27.7314 59.3075 27.629 59.3667 27.5061C59.4259 27.3831 59.4467 27.2452 59.4264 27.1103C59.406 26.9753 59.3453 26.8496 59.2524 26.7496C59.1594 26.6495 59.0381 26.5797 58.9049 26.5492C58.7717 26.5187 58.6325 26.529 58.5053 26.5786C58.3775 26.6283 58.2682 26.715 58.1911 26.8276C58.1136 26.9402 58.0723 27.0734 58.0718 27.2098C58.0644 27.2968 58.0748 27.3844 58.1031 27.4669C58.1315 27.5495 58.1772 27.6253 58.2363 27.6893C58.296 27.7534 58.3681 27.8043 58.4486 27.8387C58.5291 27.8732 58.6156 27.8904 58.7031 27.8894Z" fill="#6C6C75"/>
<path d="M64.5487 26.8526H64.2803C64.2335 26.7552 64.159 26.6737 64.0665 26.6181C63.9736 26.5625 63.8662 26.5354 63.7583 26.5401C63.5804 26.5401 63.4094 26.6107 63.2836 26.7363C63.1579 26.8619 63.0873 27.0322 63.0873 27.2098C63.0873 27.3874 63.1579 27.5577 63.2836 27.6833C63.4094 27.8089 63.5804 27.8795 63.7583 27.8795C63.9079 27.8864 64.0546 27.8348 64.1669 27.7357C64.2793 27.6366 64.3484 27.4978 64.3598 27.3487H63.6738V27.1651H64.5785V27.3388C64.5606 27.5484 64.4647 27.7436 64.3086 27.8854C64.153 28.027 63.9492 28.1047 63.7384 28.1027C63.5063 28.1027 63.2836 28.0107 63.1196 27.847C62.9555 27.6833 62.8636 27.4612 62.8636 27.2296C62.8636 26.9981 62.9555 26.776 63.1196 26.6123C63.2836 26.4486 63.5063 26.3566 63.7384 26.3566C63.9084 26.3451 64.0774 26.3866 64.2226 26.4755C64.3682 26.5644 64.4821 26.6962 64.5487 26.8526Z" fill="#6C6C75"/>
<path d="M66.1247 26.3566H66.3484V28.068H66.1247V26.3566Z" fill="#6C6C75"/>
<path d="M67.8542 26.3566H69.0174V26.5401H68.5551V28.068H68.3315V26.5401H67.8592L67.8542 26.3566Z" fill="#6C6C75"/>
<path d="M71.6223 27.2941H70.7474V28.068H70.5436V26.3566H70.7673V27.1106H71.6422V26.3566H71.8658V28.068H71.6422L71.6223 27.2941Z" fill="#6C6C75"/>
<path d="M73.4514 26.3566H73.6751V27.438C73.6657 27.4973 73.6697 27.5579 73.6876 27.6152C73.7054 27.6726 73.7363 27.7251 73.7775 27.7687C73.8188 27.8123 73.8695 27.8459 73.9257 27.8668C73.9823 27.8877 74.0425 27.8954 74.1026 27.8894C74.3512 27.8894 74.5202 27.7555 74.5202 27.438V26.3566H74.7439V27.438C74.7439 27.609 74.6758 27.7731 74.5545 27.894C74.4332 28.0149 74.2686 28.0829 74.0976 28.0829C73.9262 28.0829 73.7616 28.0149 73.6403 27.894C73.5195 27.7731 73.4514 27.609 73.4514 27.438V26.3566Z" fill="#6C6C75"/>
<path d="M77.0058 28.068H76.3646V26.3566H76.9809C77.3438 26.3566 77.5228 26.555 77.5228 26.7931C77.5242 26.8824 77.4959 26.9697 77.4417 27.0408C77.3876 27.1119 77.311 27.1627 77.2245 27.185C77.3209 27.2056 77.4074 27.2588 77.4691 27.3357C77.5302 27.4125 77.5635 27.5082 77.5625 27.6066C77.5476 27.8448 77.3438 28.068 77.0058 28.068ZM76.9611 26.5401H76.5882V27.0957H76.966C77.1748 27.0957 77.2941 26.9915 77.2941 26.8179C77.2941 26.6443 77.1649 26.5401 76.9461 26.5401H76.9611ZM76.9611 27.2793H76.5684V27.8844H76.966C77.1897 27.8844 77.319 27.7753 77.319 27.5868C77.319 27.3983 77.1847 27.2793 76.966 27.2793H76.9611Z" fill="#6C6C75"/>
<path d="M77.831 25.3H12.783C12.7382 25.3 12.6952 25.3177 12.6635 25.3494C12.6318 25.381 12.614 25.4239 12.614 25.4686C12.614 25.5138 12.6316 25.5573 12.6632 25.5897C12.6947 25.6221 12.7377 25.641 12.783 25.6423H77.831C77.8762 25.641 77.9194 25.6221 77.9508 25.5897C77.9826 25.5573 78 25.5138 78 25.4686C78 25.4239 77.9821 25.381 77.9503 25.3494C77.9189 25.3177 77.8757 25.3 77.831 25.3Z" fill="#D3D3DD"/>
<path d="M14.493 23.9259V19.1093H13.1906C13.0588 19.1093 12.9323 19.0571 12.8391 18.964C12.7459 18.871 12.6935 18.7448 12.6935 18.6132C12.6935 18.4817 12.7459 18.3555 12.8391 18.2625C12.9323 18.1695 13.0588 18.1172 13.1906 18.1172H16.7597C16.8915 18.1172 17.0179 18.1695 17.1111 18.2625C17.2044 18.3555 17.2567 18.4817 17.2567 18.6132C17.2567 18.7448 17.2044 18.871 17.1111 18.964C17.0179 19.0571 16.8915 19.1093 16.7597 19.1093H15.4523V23.9259C15.4523 24.0575 15.4 24.1837 15.3067 24.2767C15.2135 24.3698 15.0871 24.422 14.9553 24.422C14.8917 24.4214 14.829 24.408 14.7708 24.3824C14.7127 24.3569 14.6604 24.3197 14.6171 24.2733C14.5738 24.2268 14.5405 24.1721 14.5192 24.1124C14.4978 24.0527 14.4889 23.9892 14.493 23.9259Z" fill="#54535B"/>
<path d="M18.0269 23.9259V18.6182C18.0269 18.4866 18.0792 18.3605 18.1725 18.2674C18.2657 18.1744 18.3922 18.1221 18.524 18.1221C18.6558 18.1221 18.7822 18.1744 18.8755 18.2674C18.9687 18.3605 19.0211 18.4866 19.0211 18.6182V20.7958H21.6804V18.6182C21.6804 18.4866 21.7328 18.3605 21.826 18.2674C21.9192 18.1744 22.0457 18.1221 22.1775 18.1221C22.3093 18.1221 22.4358 18.1744 22.529 18.2674C22.6222 18.3605 22.6746 18.4866 22.6746 18.6182V23.9259C22.6746 24.0575 22.6222 24.1837 22.529 24.2767C22.4358 24.3697 22.3093 24.422 22.1775 24.422C22.0457 24.422 21.9192 24.3697 21.826 24.2767C21.7328 24.1837 21.6804 24.0575 21.6804 23.9259V21.7731H19.0012V23.9259C19.0012 24.0575 18.9488 24.1837 18.8556 24.2767C18.7623 24.3697 18.6359 24.422 18.5041 24.422C18.3723 24.422 18.2458 24.3697 18.1526 24.2767C18.0594 24.1837 18.007 24.0575 18.007 23.9259H18.0269Z" fill="#54535B"/>
<path d="M23.9327 23.921V18.6281C23.9327 18.4965 23.985 18.3704 24.0783 18.2773C24.1715 18.1843 24.2979 18.132 24.4298 18.132H27.0494C27.1812 18.132 27.3076 18.1843 27.4009 18.2773C27.4941 18.3704 27.5465 18.4965 27.5465 18.6281C27.5465 18.7597 27.4941 18.8858 27.4009 18.9789C27.3076 19.0719 27.1812 19.1242 27.0494 19.1242H24.9119V20.8157H26.4678C26.571 20.8457 26.6617 20.9084 26.7263 20.9943C26.7908 21.0801 26.8257 21.1846 26.8257 21.2919C26.8257 21.3992 26.7908 21.5037 26.7263 21.5895C26.6617 21.6754 26.571 21.738 26.4678 21.7681H24.9119V23.4448H27.0444C27.1762 23.4448 27.3026 23.497 27.3959 23.59C27.4891 23.6831 27.5415 23.8093 27.5415 23.9408C27.5418 24.0666 27.4942 24.1877 27.4084 24.2799C27.3226 24.3719 27.2049 24.4281 27.0792 24.4369H24.385C24.2576 24.4255 24.1394 24.3655 24.0552 24.2694C23.9709 24.1734 23.927 24.0485 23.9327 23.921Z" fill="#54535B"/>
<path d="M30.1907 21.2869C30.1878 20.6563 30.3732 20.0392 30.7232 19.5141C31.0732 18.9891 31.5719 18.5799 32.1558 18.3388C32.7397 18.0978 33.3824 18.0357 34.0018 18.1606C34.6212 18.2854 35.1893 18.5915 35.6337 19.0398C35.6798 19.083 35.7165 19.1354 35.7413 19.1934C35.7661 19.2515 35.7785 19.314 35.7779 19.3771C35.7779 19.5087 35.7255 19.6349 35.6323 19.7279C35.539 19.8209 35.4126 19.8732 35.2808 19.8732C35.2188 19.8732 35.1575 19.861 35.1003 19.8371C35.0431 19.8133 34.9913 19.7783 34.9478 19.7343C34.7391 19.5277 34.4916 19.3644 34.2195 19.2537C33.9473 19.143 33.656 19.0872 33.3621 19.0894C32.7942 19.1163 32.2585 19.3604 31.8661 19.7709C31.4738 20.1815 31.2549 20.727 31.2549 21.2944C31.2549 21.8617 31.4738 22.4073 31.8661 22.8178C32.2585 23.2284 32.7942 23.4724 33.3621 23.4993C33.7598 23.5348 34.1581 23.4356 34.4925 23.2179C34.827 23.0001 35.0784 22.6765 35.2062 22.2989H34.1823C34.0504 22.2989 33.924 22.2466 33.8308 22.1536C33.7375 22.0606 33.6852 21.9344 33.6852 21.8028C33.6852 21.6713 33.7375 21.5451 33.8308 21.4521C33.924 21.3591 34.0504 21.3068 34.1823 21.3068H35.7928C35.9246 21.3068 36.051 21.3591 36.1443 21.4521C36.2375 21.5451 36.2899 21.6713 36.2899 21.8028C36.2462 22.5384 35.916 23.2277 35.3699 23.7236C34.8237 24.2195 34.105 24.4826 33.3671 24.4567C32.9498 24.4573 32.5364 24.3758 32.1507 24.2168C31.7651 24.0577 31.4147 23.8242 31.1196 23.5298C30.8245 23.2353 30.5906 22.8856 30.4311 22.5007C30.2717 22.1159 30.1901 21.7034 30.1907 21.2869Z" fill="#54535B"/>
<path d="M37.2394 23.9259V18.6182C37.2394 18.4866 37.2918 18.3605 37.385 18.2674C37.4782 18.1744 37.6047 18.1221 37.7365 18.1221C37.8683 18.1221 37.9948 18.1744 38.088 18.2674C38.1812 18.3605 38.2336 18.4866 38.2336 18.6182V23.9259C38.2336 24.0575 38.1812 24.1837 38.088 24.2767C37.9948 24.3697 37.8683 24.422 37.7365 24.422C37.6047 24.422 37.4782 24.3697 37.385 24.2767C37.2918 24.1837 37.2394 24.0575 37.2394 23.9259Z" fill="#54535B"/>
<path d="M40.7187 23.9259V19.1093H39.4213C39.2895 19.1093 39.1631 19.0571 39.0698 18.964C38.9766 18.871 38.9242 18.7448 38.9242 18.6132C38.9242 18.4817 38.9766 18.3555 39.0698 18.2625C39.1631 18.1695 39.2895 18.1172 39.4213 18.1172H42.9954C43.1272 18.1172 43.2536 18.1695 43.3468 18.2625C43.4401 18.3555 43.4924 18.4817 43.4924 18.6132C43.4924 18.7448 43.4401 18.871 43.3468 18.964C43.2536 19.0571 43.1272 19.1093 42.9954 19.1093H41.6831V23.9259C41.6831 24.0575 41.6307 24.1837 41.5375 24.2767C41.4442 24.3698 41.3178 24.422 41.186 24.422C41.1218 24.4229 41.0581 24.4104 40.9991 24.3854C40.94 24.3604 40.8868 24.3233 40.8429 24.2767C40.7989 24.23 40.7652 24.1748 40.7438 24.1143C40.7224 24.054 40.7139 23.9898 40.7187 23.9259Z" fill="#54535B"/>
<path d="M46.1866 23.2612C46.1458 23.1777 46.1238 23.0863 46.122 22.9933C46.1308 22.8679 46.187 22.7505 46.2793 22.6648C46.3716 22.5792 46.493 22.5317 46.6191 22.532C46.7131 22.5362 46.8044 22.565 46.8838 22.6155C46.9632 22.666 47.0279 22.7364 47.0714 22.8197C47.2127 23.0362 47.4079 23.2122 47.638 23.3305C47.8681 23.4487 48.1251 23.5052 48.3836 23.4944C48.9603 23.4944 49.5617 23.1719 49.5617 22.5965C49.5617 22.0211 48.9503 21.8574 48.3936 21.7135C47.1808 21.4854 46.2462 20.9645 46.2462 19.9079C46.2627 19.6541 46.3291 19.406 46.4417 19.1779C46.5543 18.9497 46.7109 18.746 46.9025 18.5783C47.0941 18.4105 47.317 18.2822 47.5583 18.2005C47.7997 18.1188 48.0548 18.0855 48.3091 18.1023C48.67 18.085 49.0294 18.1591 49.3534 18.3179C49.6775 18.4766 49.9564 18.7148 50.1632 19.0101C50.1965 19.0674 50.2134 19.1324 50.2129 19.1986C50.2124 19.2576 50.2 19.316 50.1766 19.3702C50.1532 19.4245 50.1189 19.4735 50.0767 19.5146C50.0339 19.5557 49.9837 19.5879 49.9286 19.6094C49.8739 19.631 49.8147 19.6414 49.7556 19.64C49.6502 19.6466 49.5463 19.6148 49.4623 19.5508C49.3167 19.3881 49.1372 19.2593 48.9359 19.1736C48.7351 19.0878 48.5179 19.0473 48.2991 19.0547C47.7126 19.0547 47.2106 19.3672 47.2056 19.8782C47.2006 20.3891 47.8667 20.5974 48.6322 20.7611C49.5518 21.0091 50.4664 21.4357 50.4664 22.5271C50.4664 23.6184 49.4722 24.4567 48.2793 24.4567C47.8551 24.4629 47.4371 24.3553 47.0689 24.1449C46.7007 23.9347 46.396 23.6294 46.1866 23.2612Z" fill="#54535B"/>
<path d="M51.3859 23.921V18.6281C51.3859 18.4965 51.4381 18.3704 51.5316 18.2773C51.6245 18.1843 51.7513 18.132 51.883 18.132H54.5026C54.6343 18.132 54.7606 18.1843 54.8541 18.2773C54.947 18.3704 54.9997 18.4965 54.9997 18.6281C54.9997 18.7597 54.947 18.8858 54.8541 18.9789C54.7606 19.0719 54.6343 19.1242 54.5026 19.1242H52.3701V20.8157H53.931C54.0344 20.8457 54.1248 20.9084 54.1895 20.9943C54.2541 21.0801 54.2889 21.1846 54.2889 21.2919C54.2889 21.3992 54.2541 21.5037 54.1895 21.5895C54.1248 21.6754 54.0344 21.738 53.931 21.7681H52.39V23.4448H54.5225C54.6542 23.4448 54.7805 23.497 54.8739 23.59C54.9669 23.6831 55.0196 23.8093 55.0196 23.9408C55.0196 24.0666 54.9724 24.1877 54.8864 24.2799C54.8004 24.3719 54.6831 24.4281 54.5573 24.4369H51.878C51.8114 24.4363 51.7458 24.4223 51.6847 24.3958C51.6235 24.3694 51.5683 24.3309 51.5226 24.2829C51.4764 24.2348 51.4406 24.1779 51.4172 24.1158C51.3939 24.0536 51.3829 23.9873 51.3859 23.921Z" fill="#54535B"/>
<path d="M55.3329 23.9458C55.3319 23.8685 55.3488 23.7921 55.3826 23.7225L57.6841 18.4198C57.7219 18.3317 57.784 18.2562 57.8631 18.2025C57.9426 18.1488 58.0356 18.1192 58.1315 18.1172C58.2264 18.1168 58.3184 18.1451 58.3969 18.1982C58.475 18.2513 58.5351 18.3269 58.5689 18.4148L60.8456 23.7027C60.8769 23.7731 60.8938 23.849 60.8953 23.9259C60.8958 23.9896 60.8828 24.0525 60.857 24.1109C60.8316 24.1692 60.7949 24.2217 60.7481 24.2651C60.7014 24.3084 60.6462 24.3416 60.5861 24.3626C60.5259 24.3837 60.4618 24.3921 60.3982 24.3872C60.3037 24.3861 60.2113 24.358 60.1318 24.3061C60.0527 24.2543 59.9901 24.1808 59.9508 24.0946L59.3344 22.6411H56.849L56.2476 24.0896C56.1993 24.1835 56.1218 24.2595 56.0269 24.3064C55.9319 24.3533 55.8245 24.3687 55.7202 24.3505C55.6158 24.3322 55.5203 24.2811 55.4468 24.2048C55.3737 24.1284 55.327 24.0307 55.313 23.9259L55.3329 23.9458ZM58.9417 21.6887L58.1066 19.7045L57.2765 21.6887H58.9417Z" fill="#54535B"/>
<path d="M61.6356 23.9259V18.6182C61.6356 18.4866 61.6878 18.3605 61.7807 18.2674C61.8742 18.1744 62.0005 18.1221 62.1327 18.1221H63.778C64.0246 18.1189 64.2696 18.1644 64.4983 18.256C64.7274 18.3476 64.9357 18.4837 65.1122 18.6561C65.2882 18.8286 65.4283 19.0341 65.5243 19.2609C65.6202 19.4877 65.6704 19.7312 65.6719 19.9774C65.6724 20.3601 65.5531 20.7334 65.3299 21.0448C65.1072 21.3563 64.7921 21.5901 64.4292 21.7136L65.5725 23.6878C65.6152 23.7579 65.6376 23.8387 65.6371 23.921C65.6371 24.0525 65.5844 24.1787 65.4915 24.2717C65.398 24.3648 65.2718 24.417 65.14 24.417C65.054 24.4157 64.97 24.3921 64.896 24.3486C64.8219 24.3052 64.7603 24.2433 64.7175 24.169L63.3505 21.8475H62.5999V23.9259C62.5999 24.0575 62.5472 24.1837 62.4543 24.2767C62.3608 24.3698 62.2346 24.422 62.1029 24.422C61.9706 24.422 61.8444 24.3698 61.7509 24.2767C61.658 24.1837 61.6058 24.0575 61.6058 23.9259H61.6356ZM63.7731 20.8603C64.0102 20.8579 64.2368 20.7642 64.4063 20.5988C64.5758 20.4333 64.6748 20.2089 64.6827 19.9724C64.6797 19.8554 64.6544 19.74 64.6067 19.6329C64.5594 19.5259 64.4913 19.4292 64.4063 19.3485C64.3213 19.2678 64.2209 19.2047 64.1116 19.1628C64.0017 19.1209 63.8849 19.101 63.7681 19.1043H62.6149V20.8603H63.7731Z" fill="#54535B"/>
<path d="M66.2885 21.2869C66.2855 20.6563 66.4709 20.0392 66.8209 19.5141C67.1708 18.9891 67.6694 18.5799 68.2535 18.3388C68.8375 18.0978 69.4797 18.0357 70.0991 18.1606C70.719 18.2854 71.2871 18.5915 71.7315 19.0398C71.7773 19.083 71.814 19.1354 71.8389 19.1934C71.8637 19.2515 71.8762 19.314 71.8757 19.3771C71.8717 19.4713 71.8409 19.5624 71.7867 19.6397C71.733 19.7171 71.658 19.7776 71.571 19.814C71.484 19.8504 71.388 19.8613 71.2951 19.8455C71.2021 19.8296 71.1151 19.7876 71.0455 19.7244C70.7359 19.4161 70.3417 19.2064 69.9127 19.1216C69.4837 19.0368 69.0393 19.0808 68.6352 19.248C68.2316 19.4152 67.8861 19.6981 67.6435 20.061C67.4005 20.4239 67.2707 20.8506 67.2707 21.2869C67.2707 21.7233 67.4005 22.1499 67.6435 22.5128C67.8861 22.8757 68.2316 23.1587 68.6352 23.3259C69.0393 23.4931 69.4837 23.5371 69.9127 23.4523C70.3417 23.3675 70.7359 23.1577 71.0455 22.8495C71.138 22.7627 71.2608 22.7147 71.3885 22.7156C71.4546 22.7112 71.5213 22.721 71.5834 22.7444C71.646 22.7677 71.7027 22.8041 71.7494 22.8511C71.7966 22.8981 71.8329 22.9545 71.8563 23.0167C71.8802 23.0789 71.8896 23.1453 71.8856 23.2116C71.8846 23.3393 71.8349 23.4619 71.7464 23.5539C71.302 24.0002 70.7344 24.3047 70.1165 24.4287C69.4986 24.5527 68.8574 24.4906 68.2748 24.2504C67.6917 24.0101 67.1942 23.6025 66.8437 23.0794C66.4938 22.5561 66.3074 21.9409 66.3084 21.3117L66.2885 21.2869Z" fill="#54535B"/>
<path d="M72.7311 23.9259V18.6182C72.7311 18.4866 72.7838 18.3605 72.8768 18.2674C72.9702 18.1744 73.0965 18.1221 73.2282 18.1221C73.3604 18.1221 73.4867 18.1744 73.5797 18.2674C73.6731 18.3605 73.7253 18.4866 73.7253 18.6182V20.7958H76.4046V18.6182C76.4046 18.4866 76.4573 18.3605 76.5502 18.2674C76.6437 18.1744 76.7699 18.1221 76.9016 18.1221C77.0339 18.1221 77.1601 18.1744 77.2531 18.2674C77.3465 18.3605 77.3987 18.4866 77.3987 18.6182V23.9259C77.3987 24.0575 77.3465 24.1837 77.2531 24.2767C77.1601 24.3697 77.0339 24.422 76.9016 24.422C76.7699 24.422 76.6437 24.3697 76.5502 24.2767C76.4573 24.1837 76.4046 24.0575 76.4046 23.9259V21.7731H73.7253V23.9259C73.7253 24.0575 73.6731 24.1837 73.5797 24.2767C73.4867 24.3697 73.3604 24.422 73.2282 24.422C73.0965 24.422 72.9702 24.3697 72.8768 24.2767C72.7838 24.1837 72.7311 24.0575 72.7311 23.9259Z" fill="#54535B"/>
<path d="M19.6727 33.4857C16.2229 34.4826 12.7682 33.4857 9.4875 31.3674C3.72634 27.6291 2.46874 20.4019 5.67986 14.4208C9.06498 8.14554 16.6156 6.39106 22.6949 10.0645C23.9282 10.8038 25.0275 11.7476 25.9458 12.8557C26.5789 13.6351 27.4189 14.219 28.3688 14.54C29.3188 14.8611 30.3399 14.9061 31.3143 14.67L31.4833 14.6251C32.0045 14.4974 32.4897 14.2521 32.902 13.9078C33.3142 13.5636 33.6427 13.1295 33.8622 12.6387C34.0818 12.1478 34.1867 11.6132 34.169 11.0756C34.1513 10.5379 34.0114 10.0114 33.7599 9.53615C32.217 6.64641 29.9157 4.23461 27.1046 2.56156C24.2935 0.888516 21.0798 0.017901 17.811 0.0438688C14.5421 0.0698367 11.3426 0.991397 8.55831 2.7089C5.77401 4.42639 3.511 6.87444 2.01397 9.78836C0.516937 12.7022 -0.157139 15.9711 0.0646289 19.2413C0.286401 22.5116 1.39559 25.6589 3.27223 28.3427C5.14888 31.0266 7.72157 33.1449 10.7121 34.4687C13.7026 35.7924 16.9971 36.2712 20.2393 35.8532C20.4001 35.8295 20.5542 35.773 20.6923 35.6875C20.8305 35.6018 20.9498 35.4888 21.0429 35.3554C21.136 35.2219 21.2009 35.0708 21.2337 34.9113C21.2665 34.7518 21.2664 34.5872 21.2335 34.4277C21.1985 34.2599 21.1293 34.1012 21.0303 33.9613C20.9313 33.8215 20.8045 33.7038 20.658 33.6153C20.5115 33.5269 20.3484 33.4698 20.1789 33.4475C20.0093 33.4251 19.837 33.4382 19.6727 33.4857Z" fill="url(#paint0_linear_3588_631)"/>
<path style="mix-blend-mode:multiply" opacity="0.6" d="M19.6727 33.4857C16.2229 34.4826 12.7682 33.4857 9.4875 31.3674C3.72634 27.6291 2.46874 20.4019 5.67986 14.4208C9.06498 8.14554 16.6156 6.39106 22.6949 10.0645C23.9282 10.8038 25.0275 11.7476 25.9458 12.8557C26.5789 13.6351 27.4189 14.219 28.3688 14.54C29.3188 14.8611 30.3399 14.9061 31.3143 14.67L31.4833 14.6251C32.0045 14.4974 32.4897 14.2521 32.902 13.9078C33.3142 13.5636 33.6427 13.1295 33.8622 12.6387C34.0818 12.1478 34.1867 11.6132 34.169 11.0756C34.1513 10.5379 34.0114 10.0114 33.7599 9.53615C32.217 6.64641 29.9157 4.23461 27.1046 2.56156C24.2935 0.888516 21.0798 0.017901 17.811 0.0438688C14.5421 0.0698367 11.3426 0.991397 8.55831 2.7089C5.77401 4.42639 3.511 6.87444 2.01397 9.78836C0.516937 12.7022 -0.157139 15.9711 0.0646289 19.2413C0.286401 22.5116 1.39559 25.6589 3.27223 28.3427C5.14888 31.0266 7.72157 33.1449 10.7121 34.4687C13.7026 35.7924 16.9971 36.2712 20.2393 35.8532C20.4001 35.8295 20.5542 35.773 20.6923 35.6875C20.8305 35.6018 20.9498 35.4888 21.0429 35.3554C21.136 35.2219 21.2009 35.0708 21.2337 34.9113C21.2665 34.7518 21.2664 34.5872 21.2335 34.4277C21.1985 34.2599 21.1293 34.1012 21.0303 33.9613C20.9313 33.8215 20.8045 33.7038 20.658 33.6153C20.5115 33.5269 20.3484 33.4698 20.1789 33.4475C20.0093 33.4251 19.837 33.4382 19.6727 33.4857Z" fill="url(#paint1_linear_3588_631)"/>
<path d="M5.03818 14.5204C6.80192 11.5946 9.64721 9.48605 12.9543 8.65422C16.2614 7.82244 19.7623 8.33468 22.6945 10.0794C23.9278 10.8188 25.027 11.7625 25.9454 12.8706C26.5785 13.65 27.4184 14.2339 28.3684 14.555C29.3183 14.876 30.3395 14.9211 31.3139 14.6849L31.4829 14.6401C32.0061 14.513 32.4934 14.2674 32.9072 13.9221C33.3211 13.5769 33.6506 13.1411 33.8704 12.6483C34.0902 12.1555 34.1945 11.6188 34.1753 11.0793C34.1561 10.5398 34.0138 10.0119 33.7595 9.53614C32.2958 6.79553 30.1484 4.48229 27.5269 2.82233C24.9054 1.16238 21.8994 0.212421 18.8025 0.065213C15.7055 -0.0819946 12.6234 0.578578 9.85708 1.98243C7.09073 3.3863 4.73471 5.48546 3.01906 8.07495C1.3034 10.6645 0.286745 13.6559 0.068348 16.757C-0.150054 19.8581 0.437271 22.963 1.77297 25.7686C3.10867 28.5742 5.14709 30.9845 7.68921 32.7643C10.2314 34.544 13.1903 35.6324 16.2772 35.923C1.19576 33.2016 2.16507 19.2406 5.03818 14.5204Z" fill="url(#paint2_linear_3588_631)"/>
<path style="mix-blend-mode:multiply" opacity="0.6" d="M5.03818 14.5204C6.80192 11.5946 9.64721 9.48605 12.9543 8.65422C16.2614 7.82244 19.7623 8.33468 22.6945 10.0794C23.9278 10.8188 25.027 11.7625 25.9454 12.8706C26.5785 13.65 27.4184 14.2339 28.3684 14.555C29.3183 14.876 30.3395 14.9211 31.3139 14.6849L31.4829 14.6401C32.0061 14.513 32.4934 14.2674 32.9072 13.9221C33.3211 13.5769 33.6506 13.1411 33.8704 12.6483C34.0902 12.1555 34.1945 11.6188 34.1753 11.0793C34.1561 10.5398 34.0138 10.0119 33.7595 9.53614C32.2958 6.79553 30.1484 4.48229 27.5269 2.82233C24.9054 1.16238 21.8994 0.212421 18.8025 0.065213C15.7055 -0.0819946 12.6234 0.578578 9.85708 1.98243C7.09073 3.3863 4.73471 5.48546 3.01906 8.07495C1.3034 10.6645 0.286745 13.6559 0.068348 16.757C-0.150054 19.8581 0.437271 22.963 1.77297 25.7686C3.10867 28.5742 5.14709 30.9845 7.68921 32.7643C10.2314 34.544 13.1903 35.6324 16.2772 35.923C1.19576 33.2016 2.16507 19.2406 5.03818 14.5204Z" fill="url(#paint3_linear_3588_631)"/>
<path d="M13.4391 5.77321C20.8953 5.52898 24.4345 9.83541 26.2688 12.6565C26.7833 13.4908 27.5507 14.1379 28.4587 14.503C29.3667 14.868 30.3673 14.9319 31.3141 14.6851L31.4831 14.6403C32.0064 14.5132 32.4937 14.2676 32.9075 13.9223C33.3214 13.5771 33.6509 13.1413 33.8707 12.6485C34.0905 12.1558 34.1948 11.619 34.1756 11.0795C34.1563 10.5401 34.0141 10.0122 33.7598 9.53635C31.8539 5.94307 28.7885 3.10452 25.0648 1.48491C21.3412 -0.134712 17.1797 -0.439553 13.2609 0.620231C9.34204 1.68002 5.89772 4.04171 3.49125 7.31909C1.08479 10.5965 -0.14148 14.5957 0.0129975 18.6626C-0.131156 11.231 5.96801 6.01744 13.4391 5.77321Z" fill="url(#paint4_linear_3588_631)"/>
<path d="M31.4831 13.9774L31.3141 14.0172C30.3674 14.264 29.3666 14.2001 28.4587 13.8351C27.5507 13.47 26.7833 12.8229 26.2687 11.9886C24.4345 9.17251 20.9052 4.86608 13.4391 5.10532C5.97294 5.34457 -0.13119 10.588 0.0179343 17.9947C0.0179343 17.89 0.0179343 17.7804 0.0179343 17.6757C0.0179343 18.0047 0.0179343 18.3336 0.0179343 18.6726C-0.126219 11.241 5.98288 6.02742 13.4391 5.78319C20.8953 5.53895 24.4345 9.83542 26.2687 12.6565C26.7833 13.4908 27.5507 14.1379 28.4587 14.503C29.3666 14.868 30.3674 14.9319 31.3141 14.6851L31.4831 14.6403C32.3014 14.4353 33.0193 13.9429 33.5064 13.2524C33.9935 12.5619 34.2174 11.7191 34.1375 10.8771C34.0698 11.6059 33.778 12.2956 33.3025 12.8509C32.827 13.4063 32.1913 13.7999 31.4831 13.9774Z" fill="url(#paint5_linear_3588_631)"/>
<path d="M24.8469 33.6105C24.8469 33.8678 24.7708 34.1193 24.6282 34.3333C24.4857 34.5472 24.283 34.7139 24.046 34.8124C23.8089 34.9109 23.5481 34.9366 23.2964 34.8864C23.0447 34.8362 22.8136 34.7123 22.6321 34.5304C22.4507 34.3484 22.3271 34.1167 22.2771 33.8643C22.227 33.6119 22.2527 33.3504 22.3509 33.1127C22.4491 32.875 22.6154 32.6718 22.8287 32.5289C23.0421 32.3859 23.2929 32.3096 23.5495 32.3096C23.8936 32.3096 24.2236 32.4467 24.4669 32.6907C24.7102 32.9346 24.8469 33.2655 24.8469 33.6105Z" fill="url(#paint6_linear_3588_631)"/>
<path d="M19.6724 33.4859C16.2226 34.4828 12.7679 33.4859 9.48718 31.3676C7.78876 30.2903 6.38928 28.8003 5.41858 27.0358C4.44793 25.2713 3.93753 23.2895 3.93479 21.2744C3.8651 23.3635 4.34076 25.4345 5.31464 27.2826C6.28847 29.1307 7.72677 30.6918 9.48718 31.8112C12.7679 33.9594 16.2226 34.9563 19.6724 33.9295C19.8382 33.8796 20.0127 33.8649 20.1846 33.8863C20.3565 33.9077 20.5221 33.9648 20.6707 34.0539C20.8195 34.1429 20.948 34.2621 21.0483 34.4038C21.1485 34.5454 21.2183 34.7064 21.2531 34.8765C21.2828 34.7252 21.2828 34.5694 21.2531 34.418C21.2172 34.2488 21.1466 34.089 21.0458 33.9486C20.945 33.8083 20.8161 33.6906 20.6674 33.6029C20.5187 33.5152 20.3535 33.4595 20.1822 33.4394C20.0108 33.4193 19.8372 33.4351 19.6724 33.4859Z" fill="url(#paint7_linear_3588_631)"/>
<path d="M27.5364 31.9956C27.5364 32.1841 27.4806 32.3684 27.376 32.525C27.2714 32.6817 27.1229 32.8037 26.9491 32.8756C26.7754 32.9475 26.5842 32.9661 26.3999 32.929C26.2156 32.8918 26.0464 32.8006 25.9138 32.667C25.7812 32.5334 25.6912 32.3632 25.6551 32.1783C25.6191 31.9933 25.6386 31.8017 25.7112 31.6279C25.7838 31.4539 25.9063 31.3056 26.0631 31.2016C26.2199 31.0976 26.4039 31.0426 26.5919 31.0436C26.7164 31.0436 26.8396 31.0683 26.9545 31.1162C27.0694 31.1641 27.1737 31.2343 27.2615 31.3228C27.3493 31.4112 27.4187 31.5162 27.4659 31.6317C27.5131 31.7471 27.537 31.8708 27.5364 31.9956Z" fill="url(#paint8_linear_3588_631)"/>
<path d="M28.724 31.0436C29.0617 31.0436 29.3354 30.7691 29.3354 30.4305C29.3354 30.092 29.0617 29.8175 28.724 29.8175C28.3864 29.8175 28.1126 30.092 28.1126 30.4305C28.1126 30.7691 28.3864 31.0436 28.724 31.0436Z" fill="url(#paint9_linear_3588_631)"/>
<path d="M5.0384 14.5206C6.17294 12.6482 7.75937 11.0923 9.65146 9.99644C11.5435 8.90064 13.6803 8.30014 15.8648 8.25039C13.5923 8.20947 11.3488 8.76697 9.35838 9.8672C7.36792 10.9675 5.70012 12.572 4.52144 14.5206C1.71295 19.1261 0.723763 32.5389 14.7116 35.7089C15.2087 35.8036 15.7555 35.8783 16.2774 35.9232C1.19599 33.2018 2.1653 19.2408 5.0384 14.5206Z" fill="url(#paint10_linear_3588_631)"/>
<defs>
<linearGradient id="paint0_linear_3588_631" x1="-0.00174629" y1="18.0344" x2="34.1576" y2="18.0344" gradientUnits="userSpaceOnUse">
<stop stop-color="#FA71CD"/>
<stop offset="1" stop-color="#C471F5"/>
</linearGradient>
<linearGradient id="paint1_linear_3588_631" x1="1276.12" y1="914.424" x2="1302.62" y2="2292.23" gradientUnits="userSpaceOnUse">
<stop offset="0.11" stop-color="#666666"/>
<stop offset="0.29" stop-color="#7C7C7C" stop-opacity="0.85"/>
<stop offset="0.63" stop-color="#B7B7B7" stop-opacity="0.47"/>
<stop offset="1" stop-color="white" stop-opacity="0"/>
</linearGradient>
<linearGradient id="paint2_linear_3588_631" x1="18.7029" y1="6.23654" x2="13.9661" y2="28.2868" gradientUnits="userSpaceOnUse">
<stop stop-color="#764BA2"/>
<stop offset="1" stop-color="#667EEA"/>
</linearGradient>
<linearGradient id="paint3_linear_3588_631" x1="1910.58" y1="932.87" x2="663.23" y2="1464.32" gradientUnits="userSpaceOnUse">
<stop offset="0.11" stop-color="#666666"/>
<stop offset="0.29" stop-color="#7C7C7C" stop-opacity="0.85"/>
<stop offset="0.63" stop-color="#B7B7B7" stop-opacity="0.47"/>
<stop offset="1" stop-color="white" stop-opacity="0"/>
</linearGradient>
<linearGradient id="paint4_linear_3588_631" x1="-0.00191488" y1="9.3619" x2="34.1525" y2="9.3619" gradientUnits="userSpaceOnUse">
<stop stop-color="#4FACFE"/>
<stop offset="1" stop-color="#00F2FE"/>
</linearGradient>
<linearGradient id="paint5_linear_3588_631" x1="0.0030219" y1="11.879" x2="34.1524" y2="11.879" gradientUnits="userSpaceOnUse">
<stop stop-color="#00EDFF"/>
<stop offset="1" stop-color="#00F2FE" stop-opacity="0"/>
</linearGradient>
<linearGradient id="paint6_linear_3588_631" x1="154.637" y1="200.802" x2="151.194" y2="216.409" gradientUnits="userSpaceOnUse">
<stop stop-color="#FA71CD"/>
<stop offset="1" stop-color="#C471F5"/>
</linearGradient>
<linearGradient id="paint7_linear_3588_631" x1="9.78046" y1="27.759" x2="20.3994" y2="29.3554" gradientUnits="userSpaceOnUse">
<stop stop-color="#FF99F5"/>
<stop offset="0.99" stop-color="#C471F5" stop-opacity="0"/>
</linearGradient>
<linearGradient id="paint8_linear_3588_631" x1="133.55" y1="149.225" x2="132.538" y2="157.012" gradientUnits="userSpaceOnUse">
<stop stop-color="#FA71CD"/>
<stop offset="1" stop-color="#C471F5"/>
</linearGradient>
<linearGradient id="paint9_linear_3588_631" x1="102.802" y1="103.177" x2="102.151" y2="106.487" gradientUnits="userSpaceOnUse">
<stop stop-color="#FA71CD"/>
<stop offset="1" stop-color="#C471F5"/>
</linearGradient>
<linearGradient id="paint10_linear_3588_631" x1="8.80627" y1="30.9888" x2="13.5929" y2="10.4542" gradientUnits="userSpaceOnUse">
<stop stop-color="#90A8FC"/>
<stop offset="1" stop-color="#667EEA" stop-opacity="0"/>
</linearGradient>
</defs>
</svg>
